<svg xmlns="http://www.w3.org/2000/svg" viewBox="0 0 21.41 19.89"><defs><style>.cls-1{fill:none;stroke:#0071bc;stroke-linecap:round;stroke-miterlimit:10;stroke-width:0.75px;}</style></defs><title>Asset 6</title><g id="Layer_2" data-name="Layer 2"><g id="Layer_1-2" data-name="Layer 1"><path class="cls-1" d="M10.64,3.73a5.42,5.42,0,0,1,5-3.35c3,0,5.13,2.55,5.4,5.59a5.53,5.53,0,0,1-.17,2.12A9.38,9.38,0,0,1,18,12.84l-7.34,6.54L3.43,12.84A9.38,9.38,0,0,1,.58,8.09,5.53,5.53,0,0,1,.41,6C.68,2.93,2.83.38,5.81.38A5.23,5.23,0,0,1,10.64,3.73Z"/><path class="cls-1" d="M2.85,6.61A3.72,3.72,0,0,1,6.57,2.89"/></g></g></svg>