<svg xmlns="http://www.w3.org/2000/svg" viewBox="0 0 20.28 20.28"><defs><style>.cls-1{fill:#ccc;}</style></defs><title>Facebook</title><g id="Layer_2" data-name="Layer 2"><g id="Layer_1-2" data-name="Layer 1"><g id="Facebook"><path id="Facebook-2" data-name="Facebook" class="cls-1" d="M20.28,19.16a1.12,1.12,0,0,1-1.12,1.12H14V12.43h2.64L17,9.37H14v-2c0-.88.25-1.49,1.52-1.49h1.62V3.18c-.28,0-1.24-.12-2.36-.12a3.69,3.69,0,0,0-3.94,4.05V9.37H8.19v3.06h2.64v7.85H1.12A1.12,1.12,0,0,1,0,19.16v-18A1.12,1.12,0,0,1,1.12,0h18a1.12,1.12,0,0,1,1.12,1.12Z"/></g></g></g></svg>