<svg xmlns="http://www.w3.org/2000/svg" viewBox="0 0 24.12 24.19"><defs><style>.cls-1{fill:#fff;}</style></defs><title>Asset 17</title><g id="Layer_2" data-name="Layer 2"><g id="Layer_1-2" data-name="Layer 1"><path id="Fill-62" class="cls-1" d="M23.94,14.55c-1,6.28-5.64,9.64-11.7,9.64A12.1,12.1,0,1,1,12.24,0a11.57,11.57,0,0,1,8.29,3L17,6.52A6.48,6.48,0,0,0,12.24,4.7,7.61,7.61,0,0,0,4.7,12.09a7.61,7.61,0,0,0,7.54,7.4,6.6,6.6,0,0,0,6.64-5.38H12.1V9.41H23.91a16.72,16.72,0,0,1,.21,2.68,16.17,16.17,0,0,1-.18,2.46"/></g></g></svg>