<svg xmlns="http://www.w3.org/2000/svg" viewBox="0 0 20.25 20.25"><defs><style>.cls-1{fill:#ccc;}</style></defs><title>Instagram</title><g id="Layer_2" data-name="Layer 2"><g id="Layer_1-2" data-name="Layer 1"><g id="Instagram"><path id="Instagram-2" data-name="Instagram" class="cls-1" d="M17.85,0H2.41A2.41,2.41,0,0,0,0,2.4V17.85a2.4,2.4,0,0,0,2.41,2.4H17.85a2.39,2.39,0,0,0,2.4-2.4V2.4A2.4,2.4,0,0,0,17.85,0ZM14.56,3.16a.63.63,0,0,1,.63-.63h1.9a.63.63,0,0,1,.63.63v1.9a.64.64,0,0,1-.63.64h-1.9a.64.64,0,0,1-.63-.64Zm-4.41,3.1a3.89,3.89,0,1,1-3.89,3.89A3.9,3.9,0,0,1,10.15,6.26Zm8.2,11.46a.64.64,0,0,1-.63.64H2.53a.64.64,0,0,1-.63-.64V8.23H4.43A3.85,3.85,0,0,0,4,10.15a6.16,6.16,0,0,0,12.32,0,3.23,3.23,0,0,0-.49-1.92h2.53Z"/></g></g></g></svg>