<svg xmlns="http://www.w3.org/2000/svg" viewBox="0 0 58.2 41"><defs><style>.cls-1{opacity:0.8;}.cls-2{fill:none;stroke:#4d4d4d;stroke-linecap:round;stroke-miterlimit:10;}</style></defs><title>Asset 14</title><g id="Layer_2" data-name="Layer 2"><g id="Layer_1-2" data-name="Layer 1"><g class="cls-1"><path class="cls-2" d="M7,40.5a25.65,25.65,0,1,1,43-.65"/><line class="cls-2" x1="0.5" y1="40.5" x2="57.7" y2="40.5"/></g><path class="cls-2" d="M39.72,36.49H16.91a3.62,3.62,0,0,1-3.62-3.63V24.15a3.36,3.36,0,0,0-.48-1.74L11.67,20.5a.52.52,0,0,1,.44-.78H44.52a.52.52,0,0,1,.44.78l-1.14,1.91a3.36,3.36,0,0,0-.48,1.74v8.71A3.62,3.62,0,0,1,39.72,36.49Z"/><path class="cls-2" d="M16.09,16.23H40.54c1.11,0,3.64,2.7,3.64,2.7a.53.53,0,0,1-.45.79H12.9a.53.53,0,0,1-.45-.79S15,16.23,16.09,16.23Z"/><path class="cls-2" d="M26.63,12.73H29.3a3.2,3.2,0,0,1,3.2,3.2v.29a0,0,0,0,1,0,0H23.42a0,0,0,0,1,0,0v-.29A3.2,3.2,0,0,1,26.63,12.73Z"/><path class="cls-2" d="M46.13,24.61H43.34v2.8h2.79a1.4,1.4,0,0,0,0-2.8Z"/><path class="cls-2" d="M10.5,27.41h2.79v-2.8H10.5a1.4,1.4,0,0,0,0,2.8Z"/><line class="cls-2" x1="13.29" y1="33" x2="20.28" y2="33"/><line class="cls-2" x1="13.29" y1="30.2" x2="18.18" y2="30.2"/><line class="cls-2" x1="13.29" y1="27.41" x2="16.78" y2="27.41"/></g></g></svg>