<svg xmlns="http://www.w3.org/2000/svg" viewBox="0 0 77.99 55.24"><defs><style>.cls-1{opacity:0.8;}.cls-2,.cls-3,.cls-4{fill:none;stroke:#fff;stroke-miterlimit:10;}.cls-2{stroke-width:0.7px;}.cls-3,.cls-4{stroke-width:1.45px;}.cls-4{stroke-linecap:round;}</style></defs><title>Asset 15</title><g id="Layer_2" data-name="Layer 2"><g id="Layer_1-2" data-name="Layer 1"><g class="cls-1"><path class="cls-2" d="M8.92,54.89A35,35,0,1,1,67.51,54"/><line class="cls-2" y1="54.89" x2="77.99" y2="54.89"/></g><path class="cls-3" d="M53.48,49.42H22.37a4.94,4.94,0,0,1-4.93-5V32.59a4.65,4.65,0,0,0-.65-2.36l-1.56-2.61a.7.7,0,0,1,.6-1.06H60a.7.7,0,0,1,.6,1.06l-1.55,2.61a4.56,4.56,0,0,0-.65,2.36V44.47A4.94,4.94,0,0,1,53.48,49.42Z"/><path class="cls-3" d="M21.25,21.79H54.6c1.51,0,4.95,3.68,4.95,3.68a.72.72,0,0,1-.61,1.09h-42a.72.72,0,0,1-.6-1.09S19.74,21.79,21.25,21.79Z"/><path class="cls-3" d="M35.53,17h3.83a4.28,4.28,0,0,1,4.28,4.28v.48a0,0,0,0,1,0,0H31.25a0,0,0,0,1,0,0v-.48A4.28,4.28,0,0,1,35.53,17Z"/><path class="cls-3" d="M62.22,33.23H58.41V37h3.81a1.91,1.91,0,0,0,0-3.81Z"/><path class="cls-3" d="M13.63,37h3.81V33.23H13.63a1.91,1.91,0,1,0,0,3.81Z"/><line class="cls-4" x1="17.44" y1="44.66" x2="26.97" y2="44.66"/><line class="cls-4" x1="17.44" y1="40.85" x2="24.11" y2="40.85"/><line class="cls-4" x1="17.44" y1="37.04" x2="22.2" y2="37.04"/></g></g></svg>