<svg xmlns="http://www.w3.org/2000/svg" viewBox="0 0 20.69 17.24"><defs><style>.cls-1{fill:#ccc;}</style></defs><title>Twitter</title><g id="Layer_2" data-name="Layer 2"><g id="Layer_1-2" data-name="Layer 1"><g id="Twitter"><path id="Twitter-2" data-name="Twitter" class="cls-1" d="M20.12.32a8.21,8.21,0,0,1-2.7,1.05A4.19,4.19,0,0,0,14.32,0a4.3,4.3,0,0,0-4.24,4.35,4.55,4.55,0,0,0,.11,1A11.94,11.94,0,0,1,1.44.79,4.42,4.42,0,0,0,.87,3,4.4,4.4,0,0,0,2.75,6.61,4.08,4.08,0,0,1,.83,6.06v.06a4.33,4.33,0,0,0,3.41,4.27,4.15,4.15,0,0,1-1.12.15,4.26,4.26,0,0,1-.8-.08,4.25,4.25,0,0,0,4,3A8.39,8.39,0,0,1,0,15.29a11.84,11.84,0,0,0,6.51,1.95c7.81,0,12.07-6.63,12.07-12.38,0-.19,0-.38,0-.57A8.74,8.74,0,0,0,20.69,2a8.35,8.35,0,0,1-2.44.69A4.35,4.35,0,0,0,20.12.32Z"/></g></g></g></svg>